<svg xmlns="http://www.w3.org/2000/svg" viewBox="0 0 1200 800" role="img" aria-hidden="true"><rect width="1200" height="800" fill="#E5E1E3"/><line x1="690" y1="400" x2="980" y2="400" stroke="#14151B" stroke-opacity=".5" stroke-width="1"/><line x1="690" y1="406" x2="979" y2="424" stroke="#14151B" stroke-opacity=".5" stroke-width="1"/><line x1="689" y1="413" x2="976" y2="447" stroke="#14151B" stroke-opacity=".5" stroke-width="1"/><line x1="688" y1="419" x2="972" y2="471" stroke="#14151B" stroke-opacity=".5" stroke-width="1"/><line x1="687" y1="425" x2="965" y2="494" stroke="#14151B" stroke-opacity=".5" stroke-width="1"/><line x1="685" y1="431" x2="957" y2="516" stroke="#14151B" stroke-opacity=".5" stroke-width="1"/><line x1="682" y1="437" x2="947" y2="538" stroke="#14151B" stroke-opacity=".5" stroke-width="1"/><line x1="679" y1="442" x2="936" y2="560" stroke="#14151B" stroke-opacity=".5" stroke-width="1"/><line x1="676" y1="448" x2="922" y2="580" stroke="#14151B" stroke-opacity=".5" stroke-width="1"/><line x1="673" y1="453" x2="907" y2="600" stroke="#14151B" stroke-opacity=".5" stroke-width="1"/><line x1="669" y1="458" x2="891" y2="619" stroke="#14151B" stroke-opacity=".5" stroke-width="1"/><line x1="665" y1="463" x2="873" y2="636" stroke="#14151B" stroke-opacity=".5" stroke-width="1"/><line x1="660" y1="467" x2="854" y2="653" stroke="#14151B" stroke-opacity=".5" stroke-width="1"/><line x1="655" y1="471" x2="834" y2="668" stroke="#14151B" stroke-opacity=".5" stroke-width="1"/><line x1="650" y1="475" x2="812" y2="682" stroke="#14151B" stroke-opacity=".5" stroke-width="1"/><line x1="645" y1="478" x2="790" y2="694" stroke="#14151B" stroke-opacity=".5" stroke-width="1"/><line x1="639" y1="481" x2="767" y2="706" stroke="#14151B" stroke-opacity=".5" stroke-width="1"/><line x1="634" y1="483" x2="742" y2="715" stroke="#14151B" stroke-opacity=".5" stroke-width="1"/><line x1="628" y1="486" x2="717" y2="723" stroke="#14151B" stroke-opacity=".5" stroke-width="1"/><line x1="622" y1="487" x2="692" y2="730" stroke="#14151B" stroke-opacity=".5" stroke-width="1"/><line x1="616" y1="489" x2="666" y2="735" stroke="#14151B" stroke-opacity=".5" stroke-width="1"/><line x1="609" y1="490" x2="640" y2="738" stroke="#14151B" stroke-opacity=".5" stroke-width="1"/><line x1="603" y1="490" x2="613" y2="740" stroke="#14151B" stroke-opacity=".5" stroke-width="1"/><line x1="597" y1="490" x2="587" y2="740" stroke="#14151B" stroke-opacity=".5" stroke-width="1"/><line x1="591" y1="490" x2="560" y2="738" stroke="#14151B" stroke-opacity=".5" stroke-width="1"/><line x1="584" y1="489" x2="534" y2="735" stroke="#14151B" stroke-opacity=".5" stroke-width="1"/><line x1="578" y1="487" x2="508" y2="730" stroke="#14151B" stroke-opacity=".5" stroke-width="1"/><line x1="572" y1="486" x2="483" y2="723" stroke="#14151B" stroke-opacity=".5" stroke-width="1"/><line x1="566" y1="483" x2="458" y2="715" stroke="#14151B" stroke-opacity=".5" stroke-width="1"/><line x1="561" y1="481" x2="433" y2="706" stroke="#14151B" stroke-opacity=".5" stroke-width="1"/><line x1="555" y1="478" x2="410" y2="694" stroke="#2B3585" stroke-width="2.2"/><line x1="550" y1="475" x2="388" y2="682" stroke="#14151B" stroke-opacity=".5" stroke-width="1"/><line x1="545" y1="471" x2="366" y2="668" stroke="#14151B" stroke-opacity=".5" stroke-width="1"/><line x1="540" y1="467" x2="346" y2="653" stroke="#14151B" stroke-opacity=".5" stroke-width="1"/><line x1="535" y1="463" x2="327" y2="636" stroke="#14151B" stroke-opacity=".5" stroke-width="1"/><line x1="531" y1="458" x2="309" y2="619" stroke="#14151B" stroke-opacity=".5" stroke-width="1"/><line x1="527" y1="453" x2="293" y2="600" stroke="#14151B" stroke-opacity=".5" stroke-width="1"/><line x1="524" y1="448" x2="278" y2="580" stroke="#14151B" stroke-opacity=".5" stroke-width="1"/><line x1="521" y1="442" x2="264" y2="560" stroke="#14151B" stroke-opacity=".5" stroke-width="1"/><line x1="518" y1="437" x2="253" y2="538" stroke="#14151B" stroke-opacity=".5" stroke-width="1"/><line x1="515" y1="431" x2="243" y2="516" stroke="#14151B" stroke-opacity=".5" stroke-width="1"/><line x1="513" y1="425" x2="235" y2="494" stroke="#14151B" stroke-opacity=".5" stroke-width="1"/><line x1="512" y1="419" x2="228" y2="471" stroke="#14151B" stroke-opacity=".5" stroke-width="1"/><line x1="511" y1="413" x2="224" y2="447" stroke="#14151B" stroke-opacity=".5" stroke-width="1"/><line x1="510" y1="406" x2="221" y2="424" stroke="#14151B" stroke-opacity=".5" stroke-width="1"/><line x1="510" y1="400" x2="220" y2="400" stroke="#14151B" stroke-opacity=".5" stroke-width="1"/><line x1="510" y1="394" x2="221" y2="376" stroke="#14151B" stroke-opacity=".5" stroke-width="1"/><line x1="511" y1="387" x2="224" y2="353" stroke="#14151B" stroke-opacity=".5" stroke-width="1"/><line x1="512" y1="381" x2="228" y2="329" stroke="#14151B" stroke-opacity=".5" stroke-width="1"/><line x1="513" y1="375" x2="235" y2="306" stroke="#14151B" stroke-opacity=".5" stroke-width="1"/><line x1="515" y1="369" x2="243" y2="284" stroke="#14151B" stroke-opacity=".5" stroke-width="1"/><line x1="518" y1="363" x2="253" y2="262" stroke="#14151B" stroke-opacity=".5" stroke-width="1"/><line x1="521" y1="358" x2="264" y2="240" stroke="#14151B" stroke-opacity=".5" stroke-width="1"/><line x1="524" y1="352" x2="278" y2="220" stroke="#14151B" stroke-opacity=".5" stroke-width="1"/><line x1="527" y1="347" x2="293" y2="200" stroke="#14151B" stroke-opacity=".5" stroke-width="1"/><line x1="531" y1="342" x2="309" y2="181" stroke="#14151B" stroke-opacity=".5" stroke-width="1"/><line x1="535" y1="337" x2="327" y2="164" stroke="#14151B" stroke-opacity=".5" stroke-width="1"/><line x1="540" y1="333" x2="346" y2="147" stroke="#14151B" stroke-opacity=".5" stroke-width="1"/><line x1="545" y1="329" x2="366" y2="132" stroke="#14151B" stroke-opacity=".5" stroke-width="1"/><line x1="550" y1="325" x2="388" y2="118" stroke="#14151B" stroke-opacity=".5" stroke-width="1"/><line x1="555" y1="322" x2="410" y2="106" stroke="#14151B" stroke-opacity=".5" stroke-width="1"/><line x1="561" y1="319" x2="433" y2="94" stroke="#14151B" stroke-opacity=".5" stroke-width="1"/><line x1="566" y1="317" x2="458" y2="85" stroke="#14151B" stroke-opacity=".5" stroke-width="1"/><line x1="572" y1="314" x2="483" y2="77" stroke="#14151B" stroke-opacity=".5" stroke-width="1"/><line x1="578" y1="313" x2="508" y2="70" stroke="#14151B" stroke-opacity=".5" stroke-width="1"/><line x1="584" y1="311" x2="534" y2="65" stroke="#14151B" stroke-opacity=".5" stroke-width="1"/><line x1="591" y1="310" x2="560" y2="62" stroke="#14151B" stroke-opacity=".5" stroke-width="1"/><line x1="597" y1="310" x2="587" y2="60" stroke="#14151B" stroke-opacity=".5" stroke-width="1"/><line x1="603" y1="310" x2="613" y2="60" stroke="#14151B" stroke-opacity=".5" stroke-width="1"/><line x1="609" y1="310" x2="640" y2="62" stroke="#14151B" stroke-opacity=".5" stroke-width="1"/><line x1="616" y1="311" x2="666" y2="65" stroke="#14151B" stroke-opacity=".5" stroke-width="1"/><line x1="622" y1="313" x2="692" y2="70" stroke="#14151B" stroke-opacity=".5" stroke-width="1"/><line x1="628" y1="314" x2="717" y2="77" stroke="#14151B" stroke-opacity=".5" stroke-width="1"/><line x1="634" y1="317" x2="742" y2="85" stroke="#14151B" stroke-opacity=".5" stroke-width="1"/><line x1="639" y1="319" x2="767" y2="94" stroke="#14151B" stroke-opacity=".5" stroke-width="1"/><line x1="645" y1="322" x2="790" y2="106" stroke="#14151B" stroke-opacity=".5" stroke-width="1"/><line x1="650" y1="325" x2="812" y2="118" stroke="#14151B" stroke-opacity=".5" stroke-width="1"/><line x1="655" y1="329" x2="834" y2="132" stroke="#14151B" stroke-opacity=".5" stroke-width="1"/><line x1="660" y1="333" x2="854" y2="147" stroke="#14151B" stroke-opacity=".5" stroke-width="1"/><line x1="665" y1="337" x2="873" y2="164" stroke="#14151B" stroke-opacity=".5" stroke-width="1"/><line x1="669" y1="342" x2="891" y2="181" stroke="#14151B" stroke-opacity=".5" stroke-width="1"/><line x1="673" y1="347" x2="907" y2="200" stroke="#14151B" stroke-opacity=".5" stroke-width="1"/><line x1="676" y1="352" x2="922" y2="220" stroke="#14151B" stroke-opacity=".5" stroke-width="1"/><line x1="679" y1="358" x2="936" y2="240" stroke="#14151B" stroke-opacity=".5" stroke-width="1"/><line x1="682" y1="363" x2="947" y2="262" stroke="#14151B" stroke-opacity=".5" stroke-width="1"/><line x1="685" y1="369" x2="957" y2="284" stroke="#14151B" stroke-opacity=".5" stroke-width="1"/><line x1="687" y1="375" x2="965" y2="306" stroke="#14151B" stroke-opacity=".5" stroke-width="1"/><line x1="688" y1="381" x2="972" y2="329" stroke="#14151B" stroke-opacity=".5" stroke-width="1"/><line x1="689" y1="387" x2="976" y2="353" stroke="#14151B" stroke-opacity=".5" stroke-width="1"/><line x1="690" y1="394" x2="979" y2="376" stroke="#14151B" stroke-opacity=".5" stroke-width="1"/></svg>